<svg xmlns="http://www.w3.org/2000/svg" width="46.711" height="30.435" viewBox="0 0 46.711 30.435"><defs><style>.a{fill:#83c7ed;}</style></defs><path class="a" d="M61.622,189.7s-.94-8.558-9.321-8.558-9.805,7.973-9.805,9.7c0,1.758-.127,10.086,9.959,10.086H78.865s10.341-.28,10.341-10.646c0-10.391-11.487-11.308-12.072-11.308A10.618,10.618,0,0,0,66.309,170.5c-9.347,0-10.669,8.965-10.669,8.965s2.7,1.324,2.7,1.655c0,0,1.961-7.233,7.794-7.233s8.532,5.068,8.532,8.634c0,0,10.926-.407,10.926,7.717,0,7.055-6.724,6.979-6.724,6.979H52.682s-6.8.585-6.8-6.138c0,0,.255-6.571,6.494-6.571a6.317,6.317,0,0,1,6.316,6.24l.2,2.42,18.516.051V189.8h-2.9v-2.547H71.223v2.524H70v-2.524H66.563v2.471l-4.941-.025Z" transform="translate(-42.495 -170.497)"/></svg>