<svg xmlns="http://www.w3.org/2000/svg" width="44.389" height="44.388" viewBox="0 0 44.389 44.388"><defs><style>.a{fill:#83c7ed;}</style></defs><g transform="translate(0)"><path class="a" d="M103.769,117.834H98.811a1.585,1.585,0,0,1-1.585-1.585V103.566H121v12.682a1.585,1.585,0,0,1-1.585,1.585H116.7a1.585,1.585,0,0,0,0,3.171h2.723a4.756,4.756,0,0,0,4.755-4.755V98.811a4.756,4.756,0,0,0-4.755-4.756H98.811a4.756,4.756,0,0,0-4.756,4.756v17.438A4.756,4.756,0,0,0,98.811,121h4.958a1.585,1.585,0,0,0,0-3.171ZM97.226,98.811a1.585,1.585,0,0,1,1.585-1.585H119.42A1.585,1.585,0,0,1,121,98.811V100.4H97.226Z" transform="translate(-94.055 -94.055)"/><path class="a" d="M542.665,611.356h-4.5a1.585,1.585,0,0,0,0,3.171h4.5a1.585,1.585,0,0,1,1.585,1.585v12.682H520.472V616.112a1.585,1.585,0,0,1,1.585-1.585h3.125a1.585,1.585,0,0,0,0-3.171h-3.125a4.756,4.756,0,0,0-4.756,4.756V633.55a4.756,4.756,0,0,0,4.756,4.756h20.609a4.756,4.756,0,0,0,4.756-4.756V616.112A4.756,4.756,0,0,0,542.665,611.356Zm1.585,22.194a1.585,1.585,0,0,1-1.585,1.585H522.057a1.585,1.585,0,0,1-1.585-1.585v-1.585h23.779Z" transform="translate(-503.033 -593.918)"/></g></svg>