<svg xmlns="http://www.w3.org/2000/svg" width="41.446" height="37.087" viewBox="0 0 41.446 37.087"><defs><style>.a{fill:#83c7ed;stroke:#acdaf3;}</style></defs><g transform="translate(-939.777 -2635.259)"><g transform="translate(940.277 2635.155)"><path class="a" d="M37.357,346.375H3.089A3.089,3.089,0,0,1,0,343.29V328.4a3.089,3.089,0,0,1,3.089-3.089H37.357a3.09,3.09,0,0,1,3.089,3.089v14.891a3.088,3.088,0,0,1-3.09,3.089Zm-34.268-18.7a.718.718,0,0,0-.719.719v14.891a.717.717,0,0,0,.719.718H37.357a.718.718,0,0,0,.719-.718V328.4a.718.718,0,0,0-.719-.719Z" transform="translate(0 -312.946)"/><path class="a" d="M243.692,138.75h2.37v6.77h-2.37Zm6.6,0h2.37v6.77h-2.37ZM226.676,151.7h2.37v4.23h-2.37Zm21.666,0h2.37v4.23h-2.37Zm-14.719-24.326h-2.368a.682.682,0,0,0-1.363,0h-2.37a3.05,3.05,0,0,1,6.1,0Z" transform="translate(-218.469 -119.239)"/><path class="a" d="M141.385,8.134h-2.369a5.161,5.161,0,1,0-10.322,0h-2.369a7.531,7.531,0,1,1,15.061,0ZM132.669,9.31h2.369v4.23H132.67V9.312Z" transform="translate(-121.75)"/></g></g></svg>